<svg width="14" height="14" viewBox="0 0 14 14" fill="none" xmlns="http://www.w3.org/2000/svg">
<path d="M6.69623 11.5091C6.5813 11.5093 6.47065 11.4655 6.38706 11.3866L2.30373 7.30325C2.13313 7.13244 2.13313 6.85572 2.30373 6.68491L6.38706 2.60158C6.55787 2.43098 6.83459 2.43098 7.0054 2.60158C7.08878 2.68283 7.13581 2.79432 7.13581 2.91075C7.13581 3.02717 7.08878 3.13866 7.0054 3.21991L3.23706 6.99991L6.99956 10.7624C7.08295 10.8437 7.12998 10.9552 7.12998 11.0716C7.12998 11.188 7.08295 11.2995 6.99956 11.3807C6.92054 11.4636 6.81073 11.5101 6.69623 11.5091Z" fill="#343434"/>
<path d="M11.3867 7.4375H2.63672C2.39509 7.4375 2.19922 7.24162 2.19922 7C2.19922 6.75838 2.39509 6.5625 2.63672 6.5625H11.3867C11.6283 6.5625 11.8242 6.75838 11.8242 7C11.8242 7.24162 11.6283 7.4375 11.3867 7.4375Z" fill="#343434"/>
<path d="M6.69623 11.5091C6.5813 11.5093 6.47065 11.4655 6.38706 11.3866L2.30373 7.30325C2.13313 7.13244 2.13313 6.85572 2.30373 6.68491L6.38706 2.60158C6.55787 2.43098 6.83459 2.43098 7.0054 2.60158C7.08878 2.68283 7.13581 2.79432 7.13581 2.91075C7.13581 3.02717 7.08878 3.13866 7.0054 3.21991L3.23706 6.99991L6.99956 10.7624C7.08295 10.8437 7.12998 10.9552 7.12998 11.0716C7.12998 11.188 7.08295 11.2995 6.99956 11.3807C6.92054 11.4636 6.81073 11.5101 6.69623 11.5091Z" fill="#343434"/>
<path d="M11.3867 7.4375H2.63672C2.39509 7.4375 2.19922 7.24162 2.19922 7C2.19922 6.75838 2.39509 6.5625 2.63672 6.5625H11.3867C11.6283 6.5625 11.8242 6.75838 11.8242 7C11.8242 7.24162 11.6283 7.4375 11.3867 7.4375Z" fill="#343434"/>
</svg>
