<svg width="12" height="12" viewBox="0 0 12 12" fill="none" xmlns="http://www.w3.org/2000/svg">
<path d="M4.65039 10.6504L0.262891 6.26289C0.221224 6.22122 0.192057 6.17956 0.175391 6.13789C0.158724 6.09622 0.150391 6.05039 0.150391 6.00039C0.150391 5.95039 0.158724 5.90456 0.175391 5.86289C0.192057 5.82122 0.221224 5.77956 0.262891 5.73789L4.65039 1.35039C4.74206 1.25872 4.85872 1.21289 5.00039 1.21289C5.14206 1.21289 5.25872 1.25872 5.35039 1.35039C5.45039 1.45039 5.50039 1.56914 5.50039 1.70664C5.50039 1.84414 5.45039 1.96289 5.35039 2.06289L1.41289 6.00039L5.35039 9.93789C5.45039 10.0379 5.49831 10.1566 5.49414 10.2941C5.48997 10.4316 5.44206 10.5462 5.35039 10.6379C5.25039 10.7379 5.13164 10.7879 4.99414 10.7879C4.85664 10.7879 4.74206 10.7421 4.65039 10.6504Z" fill="#329DFF"/>
</svg>
