<svg width="16" height="19" viewBox="0 0 16 19" fill="none" xmlns="http://www.w3.org/2000/svg">
<path fill-rule="evenodd" clip-rule="evenodd" d="M14.7125 13.9749L14.9405 15.0579C15.1566 15.9942 14.9432 16.9781 14.3588 17.7408C13.7743 18.5036 12.8798 18.9655 11.9195 19.0004H3.10349C2.14321 18.9655 1.24868 18.5036 0.66422 17.7408C0.0797602 16.9781 -0.133571 15.9942 0.0824909 15.0579L0.310491 13.9749C0.572724 12.5088 1.83298 11.4314 3.32199 11.4004H11.701C13.19 11.4314 14.4503 12.5088 14.7125 13.9749ZM11.9198 17.5664C12.4022 17.5608 12.8562 17.3373 13.1548 16.9584V16.9679C13.5212 16.5083 13.664 15.9094 13.5443 15.3339L13.3163 14.2509C13.1898 13.4483 12.5132 12.8473 11.7013 12.8164H3.32229C2.51039 12.8473 1.8338 13.4483 1.70729 14.2509L1.47929 15.3339C1.36259 15.9064 1.50519 16.5011 1.86879 16.9584C2.16741 17.3373 2.62139 17.5608 3.10379 17.5664H11.9198Z" fill="#8092AF"/>
<path fill-rule="evenodd" clip-rule="evenodd" d="M7.98634 9.50001H7.03634C4.93766 9.50001 3.23634 7.7987 3.23634 5.70001V3.19201C3.23381 2.34467 3.56929 1.5313 4.16846 0.932133C4.76763 0.332967 5.581 -0.00251894 6.42834 1.42421e-05H8.59434C9.44169 -0.00251894 10.2551 0.332967 10.8542 0.932133C11.4534 1.5313 11.7889 2.34467 11.7863 3.19201V5.70001C11.7863 7.7987 10.085 9.50001 7.98634 9.50001ZM6.42911 1.4248C5.45322 1.4248 4.66211 2.21592 4.66211 3.1918V5.6998C4.66211 7.01148 5.72543 8.0748 7.03711 8.0748H7.98711C9.29879 8.0748 10.3621 7.01148 10.3621 5.6998V3.1918C10.3621 2.72317 10.1759 2.27372 9.84457 1.94235C9.51319 1.61097 9.06375 1.4248 8.59511 1.4248H6.42911Z" fill="#8092AF"/>
</svg>
