<svg width="23" height="19" viewBox="0 0 23 19" fill="none" xmlns="http://www.w3.org/2000/svg">
<g clip-path="url(#clip0_413_5662)">
<path d="M0 5.831C0.0697837 5.52289 0.123517 5.21059 0.209351 4.90805C1.00419 2.19984 2.78088 0.540755 5.57572 0.0925232C7.80879 -0.265783 9.73412 0.435494 11.298 2.08342C11.3496 2.1378 11.3992 2.19357 11.4508 2.24724C11.4718 2.26451 11.494 2.28034 11.5171 2.29464C11.7264 2.08064 11.9232 1.8492 12.1452 1.64495C12.9371 0.919982 13.9056 0.415218 14.9539 0.181054C16.6015 -0.193983 18.1807 0.00817459 19.6581 0.838414C21.1354 1.66865 22.1493 2.90042 22.6797 4.50652C23.1724 6.00597 23.0935 7.49288 22.4885 8.94981C21.8067 10.5936 20.7271 11.9613 19.4878 13.2084C17.2366 15.4711 14.6525 17.2933 11.8939 18.8806C11.6246 19.0354 11.3908 19.0423 11.12 18.8848C8.36985 17.2815 5.79065 15.4537 3.54013 13.1909C2.29937 11.9445 1.19819 10.588 0.533845 8.93865C0.318911 8.40328 0.213538 7.8233 0.0572226 7.26562C0.0439637 7.22031 0.0216332 7.17709 0.0034894 7.13248L0 5.831ZM6.46685 1.16047C4.88974 1.17441 3.4187 1.80459 2.34962 3.18205C0.953943 4.97358 0.808095 6.92544 1.79484 8.96305C2.53385 10.4883 3.64899 11.7256 4.86532 12.8765C6.83671 14.7482 9.05234 16.2979 11.3817 17.6865C11.4208 17.7047 11.4635 17.7142 11.5066 17.7142C11.5498 17.7142 11.5924 17.7047 11.6315 17.6865C14.2749 16.1285 16.7669 14.3676 18.9065 12.1502C19.8186 11.2007 20.6357 10.1753 21.2142 8.9756C21.7027 7.95714 21.9546 6.89338 21.7781 5.76269C21.5455 4.26951 20.8195 3.07051 19.6001 2.16568C17.7962 0.83214 15.1479 0.827957 13.3496 2.16568C12.8621 2.5265 12.4346 2.96197 12.083 3.456C11.723 3.96279 11.2889 3.96279 10.9225 3.46855C10.8067 3.3124 10.7006 3.14789 10.5736 3.00289C9.52547 1.81923 8.20935 1.21066 6.46685 1.16117V1.16047Z" fill="#8092AF"/>
</g>
<defs>
<clipPath id="clip0_413_5662">
<rect width="23" height="19" fill="white"/>
</clipPath>
</defs>
</svg>
