<svg width="24" height="24" viewBox="0 0 24 24" fill="none" xmlns="http://www.w3.org/2000/svg">
<path d="M12.0008 22.9498C11.7841 22.9498 11.605 22.879 11.4633 22.7373C11.3216 22.5956 11.2508 22.4165 11.2508 22.1998V21.0748C8.96745 20.8415 7.06745 19.9665 5.55078 18.4498C4.03412 16.9331 3.15912 15.0331 2.92578 12.7498H1.80078C1.58411 12.7498 1.40495 12.679 1.26328 12.5373C1.12161 12.3956 1.05078 12.2165 1.05078 11.9998C1.05078 11.7831 1.12161 11.604 1.26328 11.4623C1.40495 11.3206 1.58411 11.2498 1.80078 11.2498H2.92578C3.15912 8.96647 4.03412 7.06647 5.55078 5.54981C7.06745 4.03314 8.96745 3.15814 11.2508 2.92481V1.7998C11.2508 1.58314 11.3216 1.40397 11.4633 1.2623C11.605 1.12064 11.7841 1.0498 12.0008 1.0498C12.2175 1.0498 12.3966 1.12064 12.5383 1.2623C12.68 1.40397 12.7508 1.58314 12.7508 1.7998V2.92481C15.0341 3.15814 16.9341 4.03314 18.4508 5.54981C19.9675 7.06647 20.8425 8.96647 21.0758 11.2498H22.2008C22.4175 11.2498 22.5966 11.3206 22.7383 11.4623C22.88 11.604 22.9508 11.7831 22.9508 11.9998C22.9508 12.2165 22.88 12.3956 22.7383 12.5373C22.5966 12.679 22.4175 12.7498 22.2008 12.7498H21.0758C20.8425 15.0331 19.9675 16.9331 18.4508 18.4498C16.9341 19.9665 15.0341 20.8415 12.7508 21.0748V22.1998C12.7508 22.4165 12.68 22.5956 12.5383 22.7373C12.3966 22.879 12.2175 22.9498 12.0008 22.9498ZM12.0008 19.5998C14.0841 19.5998 15.8716 18.854 17.3633 17.3623C18.855 15.8706 19.6008 14.0831 19.6008 11.9998C19.6008 9.91647 18.855 8.12897 17.3633 6.63731C15.8716 5.14564 14.0841 4.39981 12.0008 4.39981C9.91745 4.39981 8.12995 5.14564 6.63828 6.63731C5.14662 8.12897 4.40078 9.91647 4.40078 11.9998C4.40078 14.0831 5.14662 15.8706 6.63828 17.3623C8.12995 18.854 9.91745 19.5998 12.0008 19.5998Z" fill="#3F72F3"/>
</svg>
