<svg width="24" height="24" viewBox="0 0 24 24" fill="none" xmlns="http://www.w3.org/2000/svg">
<path d="M16.82 15.4846C16.4551 15.3012 16.0106 15.4435 15.82 15.8046C15.6438 16.1724 15.7895 16.6138 16.15 16.8046C17.03 17.2546 17.53 17.8046 17.53 18.3346C17.53 19.4646 15.17 20.7246 12.01 20.7246C8.85 20.7246 6.48 19.4746 6.48 18.3746C6.48 17.8546 6.98 17.2946 7.86 16.8446C8.1239 16.7387 8.30528 16.4928 8.3284 16.2094C8.35151 15.926 8.2124 15.6539 7.96914 15.5068C7.72588 15.3596 7.4203 15.3626 7.18 15.5146C5.9659 15.9722 5.11948 17.0826 5 18.3746C5 20.5946 8 22.2646 12 22.2646C16 22.2646 19 20.5946 19 18.3746C18.8916 17.0714 18.0432 15.9468 16.82 15.4846Z" fill="#8092AF"/>
<path fill-rule="evenodd" clip-rule="evenodd" d="M11.2506 18.815V14.495C7.95753 14.0982 5.54316 11.2053 5.7419 7.89433C5.94064 4.58336 8.68372 2 12.0006 2C15.3176 2 18.0606 4.58336 18.2594 7.89433C18.4581 11.2053 16.0437 14.0982 12.7506 14.495V18.815C12.7506 19.2292 12.4149 19.565 12.0006 19.565C11.5864 19.565 11.2506 19.2292 11.2506 18.815ZM16.4249 6.44113C15.6824 4.65406 13.9358 3.49094 12.0006 3.49498C9.36852 3.50048 7.23614 5.63287 7.23064 8.26498C7.2266 10.2001 8.38972 11.9468 10.1768 12.6892C11.9639 13.4316 14.0222 13.0233 15.3906 11.6549C16.759 10.2866 17.1673 8.2282 16.4249 6.44113Z" fill="#8092AF"/>
<path d="M9.58986 9.37492C10.0041 9.37492 10.3399 9.03914 10.3399 8.62492C10.3399 7.47617 11.2711 6.54492 12.4199 6.54492C12.8341 6.54492 13.1699 6.20914 13.1699 5.79492C13.1699 5.38071 12.8341 5.04492 12.4199 5.04492C11.4677 5.04757 10.5557 5.42834 9.88427 6.10348C9.21289 6.77861 8.8372 7.69279 8.83986 8.64492C8.84249 8.84119 8.92299 9.02837 9.06365 9.16527C9.20431 9.30218 9.39359 9.37759 9.58986 9.37492Z" fill="#8092AF"/>
</svg>
