<svg width="18" height="18" viewBox="0 0 18 18" fill="none" xmlns="http://www.w3.org/2000/svg">
<path d="M12.615 11.6134C12.3414 11.4759 12.008 11.5826 11.865 11.8534C11.7329 12.1293 11.8421 12.4603 12.1125 12.6034C12.7725 12.9409 13.1475 13.3534 13.1475 13.7509C13.1475 14.5984 11.3775 15.5434 9.0075 15.5434C6.6375 15.5434 4.86 14.6059 4.86 13.7809C4.86 13.3909 5.235 12.9709 5.895 12.6334C6.09293 12.5541 6.22896 12.3696 6.2463 12.1571C6.26364 11.9445 6.1593 11.7405 5.97685 11.6301C5.79441 11.5197 5.56523 11.5219 5.385 11.6359C4.47442 11.9791 3.83961 12.812 3.75 13.7809C3.75 15.4459 6 16.6984 9 16.6984C12 16.6984 14.25 15.4459 14.25 13.7809C14.1687 12.8036 13.5324 11.9601 12.615 11.6134V11.6134Z" fill="#8092AF"/>
<path fill-rule="evenodd" clip-rule="evenodd" d="M8.437 14.1112V10.8712C5.96717 10.5737 4.1564 8.40397 4.30545 5.92074C4.4545 3.43752 6.51181 1.5 8.9995 1.5C11.4872 1.5 13.5445 3.43752 13.6936 5.92074C13.8426 8.40397 12.0318 10.5737 9.562 10.8712V14.1112C9.562 14.4219 9.31016 14.6737 8.9995 14.6737C8.68884 14.6737 8.437 14.4219 8.437 14.1112ZM12.3177 4.83085C11.7609 3.49055 10.4509 2.6182 8.9995 2.62124C7.02542 2.62536 5.42613 4.22465 5.422 6.19874C5.41897 7.65009 6.29131 8.96009 7.63161 9.5169C8.97192 10.0737 10.5157 9.76747 11.542 8.74121C12.5682 7.71494 12.8745 6.17115 12.3177 4.83085Z" fill="#8092AF"/>
<path d="M7.19337 7.0307C7.50403 7.0307 7.75587 6.77886 7.75587 6.4682C7.75587 5.60664 8.45431 4.9082 9.31587 4.9082C9.62653 4.9082 9.87837 4.65636 9.87837 4.3457C9.87837 4.03504 9.62653 3.7832 9.31587 3.7832C8.60177 3.78519 7.91771 4.07077 7.41418 4.57712C6.91064 5.08347 6.62888 5.76911 6.63087 6.4832C6.63285 6.6304 6.69322 6.77079 6.79871 6.87347C6.90421 6.97615 7.04617 7.03271 7.19337 7.0307V7.0307Z" fill="#8092AF"/>
</svg>
