<svg width="43" height="34" viewBox="0 0 43 34" fill="none" xmlns="http://www.w3.org/2000/svg">
<g clip-path="url(#clip0_413_4095)">
<path d="M24.8127 3.25967C24.813 3.90478 24.619 4.5355 24.2552 5.07205C23.8914 5.6086 23.3742 6.02688 22.7689 6.27398C22.1637 6.52109 21.4976 6.58592 20.8549 6.46027C20.2122 6.33462 19.6218 6.02414 19.1583 5.5681C18.6949 5.11205 18.3792 4.53093 18.2513 3.89825C18.1233 3.26556 18.1888 2.60972 18.4395 2.01369C18.6902 1.41765 19.1147 0.908195 19.6595 0.549757C20.2043 0.191319 20.8448 8.66839e-08 21.5001 0C22.3783 -1.16187e-07 23.2206 0.343375 23.8418 0.954634C24.463 1.56589 24.8122 2.395 24.8127 3.25967Z" fill="#3F72F3"/>
<path d="M42.5935 11.8045C41.6747 11.7301 39.3719 11.5188 36.0301 12.3929C35.6077 8.99796 34.6563 6.36215 33.4834 3.54883C28.9976 5.11061 24.9088 7.61107 21.4987 10.878C18.0896 7.61072 14.0013 5.11019 9.51573 3.54883C8.33942 6.36215 7.39149 8.99796 6.96905 12.3929C3.37999 11.4664 1.32444 11.7301 0.405707 11.8045C-0.581713 16.9223 0.172162 22.7383 3.34221 26.9938C7.83111 33.0161 14.9508 33.4759 18.6258 34.0017C17.0802 32.5308 13.5908 28.6659 12.8489 27.7123L12.8352 27.6988C9.53977 23.4619 8.50255 19.0289 8.74297 13.8553C8.80455 12.8726 8.93885 11.8956 9.14481 10.9321C9.47951 9.24003 9.96272 7.57974 10.589 5.96991C12.3578 6.71551 16.5496 8.72068 20.2056 12.2779C18.8791 13.7518 17.7428 15.3816 16.8226 17.1302C14.8631 15.5264 12.6274 14.2815 10.2215 13.4546C10.1519 14.1286 10.1278 14.8064 10.1494 15.4835C16.0293 17.9925 19.9618 22.3393 21.4695 24.8483C22.7283 23.2235 23.5697 21.9487 25.4587 20.2208C25.8088 21.1614 26.086 22.1268 26.2881 23.1085C25.7008 24.0367 23.7792 26.9228 21.497 28.7842C19.2165 26.9245 17.2949 24.0367 16.7076 23.1085C16.8123 22.6013 16.9034 22.1432 17.051 21.6444C16.5473 21.1651 16.017 20.7135 15.4626 20.2918C15.1251 21.3312 14.8657 22.3936 14.6864 23.4704C16.9772 27.5906 19.5119 29.6245 21.4695 31.1833C23.5405 29.562 26.4118 27.1831 28.3128 23.4704C27.4404 18.5876 24.5211 14.3862 23.6985 13.3583C23.2297 13.8063 22.7557 14.2848 22.3539 14.7413C23.2463 15.8771 24.0196 17.0989 24.6619 18.3881C23.5078 19.3857 22.449 20.4853 21.4987 21.6731C20.5495 20.4849 19.4912 19.3853 18.3373 18.3881C19.857 15.3195 22.5806 12.2779 23.872 11.2872C26.4191 9.09166 29.2972 7.29899 32.4033 5.97329C33.2872 8.21633 33.8775 10.561 34.16 12.9508C31.6904 13.7807 29.352 14.9492 27.2137 16.4218C27.5382 16.9769 27.825 17.5524 28.0724 18.1447C29.9613 16.8225 32.7416 15.3449 35.2178 14.5942C37.4829 13.9179 39.8802 13.595 40.9449 13.595C41.175 15.6086 41.4601 21.3587 38.1063 25.8661C36.1898 28.4393 33.3735 30.2179 29.7106 31.1783C32.4222 28.4326 36.1417 23.2861 36.219 15.6813C35.5716 15.8622 34.8899 16.0719 34.2837 16.2967C34.1034 21.2589 32.3123 24.9193 30.1623 27.692C30.0146 27.8611 26.7106 31.7632 24.3717 33.995C28.0466 33.4692 35.1663 33.0093 39.6552 26.987C42.827 22.7366 43.5826 16.9206 42.5935 11.8045ZM13.2885 31.1833C9.62564 30.223 6.81106 28.4444 4.89289 25.8712C1.53394 21.3637 1.82416 15.6137 2.05427 13.6H2.10407C3.69859 13.6297 5.28203 13.868 6.81278 14.3084C6.40923 22.6723 10.4156 28.2753 13.2885 31.1833Z" fill="#3F72F3"/>
</g>
<defs>
<clipPath id="clip0_413_4095">
<rect width="43" height="34" fill="white"/>
</clipPath>
</defs>
</svg>
