<svg width="113" height="113" viewBox="0 0 113 113" fill="none" xmlns="http://www.w3.org/2000/svg">
<g clip-path="url(#clip0_413_5553)">
<path fill-rule="evenodd" clip-rule="evenodd" d="M16.3855 13.8225L17.2271 13.3752L18.4336 12.716L19.0645 12.3594L19.6766 12.0039L20.271 11.646L20.8431 11.287C20.9372 11.2282 21.0291 11.167 21.1209 11.1069L21.66 10.7432L22.1732 10.3771C24.7604 8.46791 26.293 6.37153 25.8068 3.57007C25.0865 -0.585035 18.0357 -1.00055 13.0166 1.73853C7.99756 4.4776 3.08912 10.9986 5.21965 14.6488C6.44263 16.744 8.74854 16.817 11.4405 15.9801L11.9667 15.8082L12.2327 15.714L12.7706 15.5092L13.3156 15.2879L13.5911 15.1702L14.1443 14.9254L14.7011 14.6664L15.5415 14.2545L16.3843 13.8225H16.3855ZM57.4304 96.3854L59.0794 96.3313L61.536 96.2371L63.1545 96.163L64.7565 96.0794L66.3432 95.9852L67.9123 95.8793C68.4337 95.8416 68.9505 95.8016 69.466 95.7616L70.9998 95.6286L72.5158 95.4826C93.3573 93.3615 108.775 86.8793 112.548 65.1221C117.097 38.9085 86.4572 15.5528 58.9841 16.5074C31.5098 17.462 -2.53027 40.6494 0.14877 68.1213C2.45232 91.7454 24.06 96.3066 47.5393 96.5126L49.1802 96.5208L50.003 96.5196L51.6509 96.5079C52.1994 96.502 52.7503 96.4949 53.3 96.4843L54.9526 96.4514L57.4304 96.3854Z" fill="#F5F7FB"/>
<path d="M56.5013 113.001C82.5047 113.001 103.585 110.893 103.585 108.292C103.585 105.692 82.5047 103.584 56.5013 103.584C30.4979 103.584 9.41797 105.692 9.41797 108.292C9.41797 110.893 30.4979 113.001 56.5013 113.001Z" fill="#F5F7FB"/>
<path d="M16.4046 85.0459L16.5387 85.1636L21.1894 89.8119L25.8401 85.1624C26.0942 84.9095 26.4351 84.7628 26.7934 84.7519C27.1518 84.741 27.5009 84.8669 27.77 85.1039C28.039 85.3409 28.2078 85.6713 28.2423 86.0282C28.2767 86.3851 28.1741 86.7417 27.9553 87.0257L27.8376 87.1599L23.1893 91.8118L27.8387 96.4624C28.0916 96.7166 28.2384 97.0574 28.2492 97.4158C28.2601 97.7742 28.1343 98.1233 27.8973 98.3923C27.6603 98.6614 27.3299 98.8302 26.973 98.8646C26.6161 98.899 26.2595 98.7964 25.9754 98.5776L25.8412 98.4599L21.1894 93.8116L16.5387 98.4611C16.2846 98.714 15.9437 98.8607 15.5854 98.8716C15.227 98.8825 14.8779 98.7567 14.6088 98.5197C14.3398 98.2827 14.171 97.9522 14.1365 97.5953C14.1021 97.2384 14.2047 96.8818 14.4235 96.5978L14.5412 96.4636L19.1895 91.8118L14.5401 87.1611C14.2872 86.9069 14.1404 86.5661 14.1296 86.2077C14.1187 85.8493 14.2445 85.5002 14.4815 85.2312C14.7185 84.9622 15.0489 84.7933 15.4058 84.7589C15.7627 84.7245 16.1193 84.8271 16.4034 85.0459H16.4046ZM88.0101 9.88087L88.136 9.99623L94.1686 16.0288L100.201 9.99623C100.562 9.63258 101.05 9.42274 101.562 9.4107C102.074 9.39867 102.571 9.58537 102.948 9.93166C103.326 10.278 103.554 10.7569 103.587 11.2682C103.619 11.7795 103.452 12.2833 103.12 12.6741L103.005 12.8L96.9724 18.8326L103.005 24.8651C103.369 25.226 103.578 25.7135 103.59 26.2257C103.603 26.7378 103.416 27.2347 103.07 27.6122C102.723 27.9897 102.244 28.2185 101.733 28.2506C101.222 28.2826 100.718 28.1156 100.327 27.7843L100.201 27.669L94.1686 21.6364L88.136 27.669C87.7752 28.0326 87.2876 28.2424 86.7755 28.2545C86.2634 28.2665 85.7665 28.0798 85.389 27.7335C85.0115 27.3872 84.7827 26.9082 84.7506 26.397C84.7185 25.8857 84.8856 25.3819 85.2169 24.9911L85.3322 24.8651L91.3648 18.8326L85.3322 12.8C84.9686 12.4392 84.7587 11.9516 84.7467 11.4395C84.7347 10.9274 84.9214 10.4305 85.2676 10.053C85.6139 9.67547 86.0929 9.4467 86.6042 9.41462C87.1155 9.38253 87.6193 9.54963 88.0101 9.88087Z" fill="#3F72F3" fill-opacity="0.5"/>
<path fill-rule="evenodd" clip-rule="evenodd" d="M9.41667 32.9583C9.41667 31.7096 8.92061 30.512 8.03763 29.629C7.15464 28.7461 5.95706 28.25 4.70833 28.25C3.45961 28.25 2.26202 28.7461 1.37904 29.629C0.496055 30.512 0 31.7096 0 32.9583C0 34.2071 0.496055 35.4046 1.37904 36.2876C2.26202 37.1706 3.45961 37.6667 4.70833 37.6667C5.95706 37.6667 7.15464 37.1706 8.03763 36.2876C8.92061 35.4046 9.41667 34.2071 9.41667 32.9583Z" fill="#F5F7FB"/>
<path fill-rule="evenodd" clip-rule="evenodd" d="M39.139 45.256C42.3479 37.5506 49.8666 32.5226 58.2135 32.5003C67.2095 32.4529 75.2084 38.2151 78.0126 46.763C80.8169 55.3108 77.7857 64.6916 70.5099 69.9823C63.2341 75.2731 53.3758 75.2652 46.1085 69.9628L39.6285 76.4428C38.9697 77.1008 37.9024 77.1008 37.2435 76.4428C36.5855 75.784 36.5855 74.7166 37.2435 74.0578L43.521 67.7803C37.6573 61.8399 35.93 52.9614 39.139 45.256ZM42.1475 59.8804C44.8419 66.3732 51.1839 70.6019 58.2135 70.5928V70.5028C67.7542 70.4906 75.4992 62.7857 75.561 53.2453C75.5701 46.2157 71.3414 39.8736 64.8486 37.1793C58.3559 34.485 50.8793 35.9697 45.9086 40.9404C40.9379 45.911 39.4532 53.3876 42.1475 59.8804Z" fill="#3F72F3" fill-opacity="0.5"/>
</g>
<defs>
<clipPath id="clip0_413_5553">
<rect width="113" height="113" fill="white"/>
</clipPath>
</defs>
</svg>
