<svg width="15" height="15" viewBox="0 0 15 15" fill="none" xmlns="http://www.w3.org/2000/svg">
<path fill-rule="evenodd" clip-rule="evenodd" d="M2.5386 4.79333C3.42998 2.65293 5.51851 1.25627 7.83709 1.25008C10.336 1.23692 12.5579 2.83754 13.3368 5.21194C14.1158 7.58634 13.2738 10.1921 11.2528 11.6618C9.23171 13.1314 6.49328 13.1292 4.47459 11.6563L2.67459 13.4563C2.49158 13.6391 2.1951 13.6391 2.01209 13.4563C1.8293 13.2733 1.8293 12.9768 2.01209 12.7938L3.75584 11.0501C2.12703 9.39998 1.64722 6.93373 2.5386 4.79333ZM3.37432 8.85567C4.12274 10.6592 5.88442 11.8339 7.83709 11.8313V11.8063C10.4873 11.803 12.6387 9.66271 12.6558 7.01258C12.6584 5.05992 11.4837 3.29823 9.68017 2.54981C7.87663 1.80139 5.7998 2.2138 4.41905 3.59454C3.03831 4.97529 2.6259 7.05212 3.37432 8.85567Z" fill="#8092AF"/>
</svg>
